#!OML:ASF H:\Male1\Project 1\Capture day 1\Session 1\Male1.ASF
:FULLY-SPECIFIED
:DEGREES
714
root 28.4457 15.3234 -11.404 -902.776 7.55064 -179.311
lowerback 5.72492 3.67741 2.58568
upperback 3.1772 5.2411 -1.93626
thorax 0.48789 2.77235 -3.69264
lowerneck 6.90174 12.985 15.5394
upperneck -5.87924 18.2154 -11.0428
head -0.425826 9.15491 -5.7513
rclavicle 7.55879e-014 -1.47101e-014
rhumerus -34.4848 -21.0851 -75.2654
rradius 23.4028
rwrist -12.6511
rhand -15.5838 1.50812
rfingers 7.12502
rthumb 10.6017 -28.2045
lclavicle 7.55879e-014 -1.47101e-014
lhumerus -23.1092 1.11606 81.1996
lradius 32.4536
lwrist -0.663093
lhand -18.5423 11.9269
lfingers 7.12502
lthumb 7.74696 41.765
rfemur -4.37328 17.7723 25.3986
rtibia 28.7098
rfoot -40.1588 -33.7887
rtoes -3.39824
lfemur -6.01676 -25.363 -22.0972
ltibia 31.1324
lfoot -26.9079 20.0125
ltoes 4.95415
715
root 28.4523 15.3227 -11.4112 -902.747 7.65561 -179.278
lowerback 5.69978 3.69937 2.66763
upperback 3.17882 5.27348 -1.9454
thorax 0.51468 2.79019 -3.7466
lowerneck 6.89656 12.9786 15.6328
upperneck -5.89329 18.2133 -11.0552
head -0.420183 9.15143 -5.76703
rclavicle -4.35835e-014 2.50469e-014
rhumerus -34.5762 -21.262 -75.043
rradius 23.4632
rwrist -12.7021
rhand -15.6559 1.47737
rfingers 7.12502
rthumb 10.5321 -28.2388
lclavicle -4.35835e-014 2.50469e-014
lhumerus -23.1642 1.62004 80.9632
lradius 31.4835
lwrist -1.63906
lhand -18.5326 12.1139
lfingers 7.12502
lthumb 7.75632 41.9517
rfemur -4.38513 17.7614 25.4529
rtibia 28.7134
rfoot -40.0149 -33.8138
rtoes -3.69229
lfemur -5.99622 -25.3399 -22.0494
ltibia 31.1512
lfoot -26.9777 20.0904
ltoes 4.84151
716
root 28.4604 15.3213 -11.4178 -902.737 7.74743 -179.268
lowerback 5.69812 3.71714 2.70692
upperback 3.18216 5.29944 -1.95623
thorax 0.525986 2.80433 -3.78019
lowerneck 6.88904 12.9765 15.731
upperneck -5.88174 18.2182 -11.059
head -0.406164 9.15169 -5.77906
rclavicle 2.20154e-014 4.77083e-015
rhumerus -34.6866 -21.4869 -74.7982
rradius 23.5068
rwrist -12.6593
rhand -15.6631 1.47757
rfingers 7.12502
rthumb 10.5252 -28.2389
lclavicle 2.20154e-014 4.77083e-015
lhumerus -23.229 2.23873 80.6794
lradius 30.4347
lwrist -2.77396
lhand -18.3609 12.3168
lfingers 7.12502
lthumb 7.92199 42.1484
rfemur -4.38753 17.748 25.4964
rtibia 28.7349
rfoot -39.8814 -33.8471
rtoes -4.0028
lfemur -5.94606 -25.3403 -22.0319
ltibia 31.1544
lfoot -27.0522 20.1695
ltoes 4.7711
717
root 28.4697 15.3195 -11.424 -902.748 7.82519 -179.278
lowerback 5.72738 3.72546 2.70467
upperback 3.18462 5.31179 -1.9615
thorax 0.513676 2.8107 -3.78707
lowerneck 6.88486 12.9853 15.8253
upperneck -5.83342 18.2396 -11.0561
head -0.380649 9.1613 -5.78613
rclavicle -2.9768e-014 -1.23246e-014
rhumerus -34.8116 -21.7641 -74.5175
rradius 23.5243
rwrist -12.5346
rhand -15.6198 1.49975
rfingers 7.12502
rthumb 10.5669 -28.2146
lclavicle -2.9768e-014 -1.23246e-014
lhumerus -23.3156 2.9992 80.3413
lradius 29.33
lwrist -4.01461
lhand -17.9934 12.4445
lfingers 7.12502
lthumb 8.27671 42.2624
rfemur -4.37412 17.7261 25.5312
rtibia 28.772
rfoot -39.7925 -33.8504
rtoes -4.23292
lfemur -5.86698 -25.343 -22.0376
ltibia 31.144
lfoot -27.1362 20.2167
ltoes 4.78724
718
root 28.4797 15.3174 -11.4298 -902.775 7.88488 -179.297
lowerback 5.7733 3.72572 2.68658
upperback 3.19395 5.31366 -1.9607
thorax 0.496254 2.81185 -3.77955
lowerneck 6.88139 13.0002 15.9185
upperneck -5.75612 18.2697 -11.0714
head -0.343711 9.17701 -5.79624
rclavicle -1.20762e-014 -1.31198e-014
rhumerus -34.9313 -22.0598 -74.2211
rradius 23.5251
rwrist -12.4131
rhand -15.5676 1.51628
rfingers 7.12502
rthumb 10.6172 -28.1955
lclavicle -1.20762e-014 -1.31198e-014
lhumerus -23.4046 3.91545 79.9553
lradius 28.1854
lwrist -5.30129
lhand -17.4947 12.4293
lfingers 7.12502
lthumb 8.75801 42.2276
rfemur -4.3445 17.686 25.561
rtibia 28.8127
rfoot -39.6662 -33.8733
rtoes -4.57661
lfemur -5.77104 -25.3453 -22.0553
ltibia 31.1266
lfoot -27.2351 20.2204
ltoes 4.9373
719
root 28.4899 15.3156 -11.4354 -902.806 7.92504 -179.313
lowerback 5.82847 3.71811 2.6733
upperback 3.20536 5.30545 -1.95156
thorax 0.474602 2.80788 -3.76638
lowerneck 6.88979 13.0166 16.0145
upperneck -5.6658 18.3036 -11.1189
head -0.300644 9.19674 -5.81585
rclavicle 4.78574e-014 -6.75868e-015
rhumerus -35.0469 -22.33 -73.9284
rradius 23.5248
rwrist -12.3373
rhand -15.5374 1.50765
rfingers 7.12502
rthumb 10.6464 -28.2026
lclavicle 4.78574e-014 -6.75868e-015
lhumerus -23.5029 5.02239 79.5219
lradius 27.0252
lwrist -6.59637
lhand -16.9546 12.317
lfingers 7.12502
lthumb 9.27917 42.0928
rfemur -4.30216 17.6382 25.5979
rtibia 28.8422
rfoot -39.4757 -33.9468
rtoes -5.08859
lfemur -5.67841 -25.3392 -22.0637
ltibia 31.1109
lfoot -27.3349 20.1878
ltoes 5.15839
720
root 28.5003 15.3147 -11.4411 -902.818 7.94893 -179.309
lowerback 5.86796 3.70426 2.68017
upperback 3.215 5.28871 -1.93166
thorax 0.459924 2.79952 -3.75179
lowerneck 6.91054 13.0383 16.084
upperneck -5.58746 18.3438 -11.167
head -0.264415 9.22024 -5.83343
rclavicle 3.78188e-014 -7.95139e-016
rhumerus -35.1564 -22.5571 -73.6473
rradius 23.5303
rwrist -12.2958
rhand -15.5371 1.4791
rfingers 7.12502
rthumb 10.6467 -28.2312
lclavicle 3.78188e-014 -7.95139e-016
lhumerus -23.6228 6.33561 79.0318
lradius 25.8847
lwrist -7.87075
lhand -16.4502 12.2081
lfingers 7.12502
lthumb 9.76585 41.9617
rfemur -4.26187 17.6061 25.6539
rtibia 28.8481
rfoot -39.2922 -34.0386
rtoes -5.57879
lfemur -5.61889 -25.3134 -22.0352
ltibia 31.1041
lfoot -27.4071 20.1413
ltoes 5.30342
